<svg width="11" height="10" viewBox="0 0 11 10" fill="none" xmlns="http://www.w3.org/2000/svg">
<path d="M9.41666 8.33333C9.41666 8.56354 9.2302 8.75 8.99999 8.75H2.33332C2.10311 8.75 1.91666 8.56354 1.91666 8.33333V1.66667C1.91666 1.43646 2.10311 1.25 2.33332 1.25H8.99999C9.2302 1.25 9.41666 1.43646 9.41666 1.66667V8.33333Z" fill="url(#paint0_linear_28_40)"/>
<path opacity="0.05" d="M5.87499 7.91668V5.62501H5.04166V4.37501H5.87499V3.92959C5.87499 2.87918 6.43041 2.30084 7.43853 2.30084C7.85416 2.30084 8.07957 2.33001 8.18812 2.34418L8.36686 2.3673L8.37499 2.54668V3.54168H7.6177C7.3827 3.54168 7.33332 3.82876 7.33332 4.0698V4.37501H8.31728L8.12395 5.62501H7.33332V7.91668H5.87499Z" fill="black"/>
<path opacity="0.07" d="M5.97916 7.81253V5.52086H5.14583V4.4792H5.97916V3.92961C5.97916 2.93211 6.48375 2.40503 7.43854 2.40503C7.84916 2.40503 8.06979 2.43378 8.17604 2.44753L8.26687 2.4594L8.27104 2.55149V3.43753H7.61791C7.27979 3.43753 7.22937 3.83357 7.22937 4.06982V4.4792H8.19604L8.035 5.52086H7.22916V7.81253H5.97916Z" fill="black"/>
<path d="M7.61769 3.33335H8.16665V2.55126C8.06415 2.53793 7.84769 2.50897 7.43853 2.50897C6.58415 2.50897 6.08332 2.94231 6.08332 3.9296V4.58335H5.24998V5.41668H6.08332V7.70835H7.12498V5.41668H7.9454L8.07415 4.58335H7.12498V4.06981C7.12498 3.67939 7.25249 3.33335 7.61769 3.33335Z" fill="white"/>
<defs>
<linearGradient id="paint0_linear_28_40" x1="1.96416" y1="1.02" x2="9.4327" y2="9.04833" gradientUnits="userSpaceOnUse">
<stop stop-color="#0D61A9"/>
<stop offset="1" stop-color="#16528C"/>
</linearGradient>
</defs>
</svg>
