<svg width="11" height="10" viewBox="0 0 11 10" fill="none" xmlns="http://www.w3.org/2000/svg">
<path d="M7.75352 8.74793L3.58686 8.75188C2.67019 8.75272 1.91957 8.00355 1.91853 7.08688L1.91457 2.92022C1.91373 2.00355 2.6629 1.25293 3.57957 1.25188L7.74623 1.24793C8.6629 1.24709 9.41353 1.99626 9.41457 2.91293L9.41852 7.07959C9.41957 7.99647 8.67019 8.74709 7.75352 8.74793Z" fill="url(#paint0_radial_28_45)"/>
<path d="M7.75352 8.74793L3.58686 8.75188C2.67019 8.75272 1.91957 8.00355 1.91853 7.08688L1.91457 2.92022C1.91373 2.00355 2.6629 1.25293 3.57957 1.25188L7.74623 1.24793C8.6629 1.24709 9.41353 1.99626 9.41457 2.91293L9.41852 7.07959C9.41957 7.99647 8.67019 8.74709 7.75352 8.74793Z" fill="url(#paint1_radial_28_45)"/>
<path d="M5.66666 6.45835C4.8627 6.45835 4.20833 5.80419 4.20833 5.00002C4.20833 4.19585 4.8627 3.54169 5.66666 3.54169C6.47062 3.54169 7.12499 4.19585 7.12499 5.00002C7.12499 5.80419 6.47062 6.45835 5.66666 6.45835ZM5.66666 3.95835C5.09229 3.95835 4.62499 4.42565 4.62499 5.00002C4.62499 5.5744 5.09229 6.04169 5.66666 6.04169C6.24104 6.04169 6.70833 5.5744 6.70833 5.00002C6.70833 4.42565 6.24104 3.95835 5.66666 3.95835Z" fill="white"/>
<path d="M7.22916 3.75C7.40175 3.75 7.54166 3.61009 7.54166 3.4375C7.54166 3.26491 7.40175 3.125 7.22916 3.125C7.05657 3.125 6.91666 3.26491 6.91666 3.4375C6.91666 3.61009 7.05657 3.75 7.22916 3.75Z" fill="white"/>
<path d="M6.91666 7.70835H4.41666C3.6127 7.70835 2.95833 7.05419 2.95833 6.25002V3.75002C2.95833 2.94585 3.6127 2.29169 4.41666 2.29169H6.91666C7.72062 2.29169 8.375 2.94585 8.375 3.75002V6.25002C8.375 7.05419 7.72062 7.70835 6.91666 7.70835ZM4.41666 2.70835C3.84229 2.70835 3.37499 3.17565 3.37499 3.75002V6.25002C3.37499 6.8244 3.84229 7.29169 4.41666 7.29169H6.91666C7.49104 7.29169 7.95833 6.8244 7.95833 6.25002V3.75002C7.95833 3.17565 7.49104 2.70835 6.91666 2.70835H4.41666Z" fill="white"/>
<defs>
<radialGradient id="paint0_radial_28_45" cx="0" cy="0" r="1" gradientUnits="userSpaceOnUse" gradientTransform="translate(4.70415 8.7573) scale(9.35396)">
<stop stop-color="#FFDD55"/>
<stop offset="0.328" stop-color="#FF543F"/>
<stop offset="0.348" stop-color="#FC5245"/>
<stop offset="0.504" stop-color="#E64771"/>
<stop offset="0.643" stop-color="#D53E91"/>
<stop offset="0.761" stop-color="#CC39A4"/>
<stop offset="0.841" stop-color="#C837AB"/>
</radialGradient>
<radialGradient id="paint1_radial_28_45" cx="0" cy="0" r="1" gradientUnits="userSpaceOnUse" gradientTransform="translate(3.12207 1.15424) scale(6.21104 4.13842)">
<stop stop-color="#4168C9"/>
<stop offset="0.999" stop-color="#4168C9" stop-opacity="0"/>
</radialGradient>
</defs>
</svg>
