<svg width="11" height="10" viewBox="0 0 11 10" fill="none" xmlns="http://www.w3.org/2000/svg">
<path d="M9.41666 2.58937C9.14103 2.71146 8.84457 2.79292 8.53186 2.83146C8.84978 2.64271 9.09436 2.34167 9.20916 1.98604C8.91166 2.16042 8.58207 2.28854 8.23145 2.35604C7.95145 2.05917 7.55207 1.875 7.10957 1.875C6.25957 1.875 5.57061 2.55792 5.57061 3.4C5.57061 3.51917 5.58457 3.63521 5.61082 3.74792C4.33207 3.68375 3.19791 3.07583 2.43916 2.15333C2.30582 2.37875 2.23082 2.64271 2.23082 2.92125C2.23082 3.45063 2.50186 3.91667 2.9152 4.19125C2.66291 4.18354 2.42541 4.11333 2.21749 4.00083C2.21749 4.00542 2.21749 4.01229 2.21749 4.01875C2.21749 4.75854 2.74811 5.37458 3.45145 5.51479C3.32291 5.55 3.18707 5.56958 3.04707 5.56958C2.9477 5.56958 2.85082 5.55833 2.75707 5.54146C2.95291 6.14604 3.52103 6.58792 4.19416 6.60104C3.66749 7.00937 3.00416 7.25396 2.28291 7.25396C2.15832 7.25396 2.03645 7.24687 1.91603 7.23229C2.59749 7.66375 3.40666 7.91667 4.2752 7.91667C7.10541 7.91667 8.65374 5.5925 8.65374 3.57625C8.65374 3.51021 8.65166 3.44438 8.64853 3.37938C8.95061 3.16604 9.21103 2.89687 9.41666 2.58937Z" fill="#03A9F4"/>
</svg>
